<svg version="1.2" xmlns="http://www.w3.org/2000/svg" viewBox="0 0 501 197" width="501" height="197">
	<title>Place Your Logo Here (Double Click to Edit)12</title>
	<style>
		tspan { white-space:pre } 
		.t0 { font-size: 42px;line-height: 50px;fill: #745a82;font-weight: 500;font-family: "Raleway-Medium", "Raleway" } 
		.t1 { font-size: 25px;fill: #745a82;font-weight: 500;font-family: "Raleway-Medium", "Raleway" } 
		.t2 { font-size: 42px;line-height: 50px;fill: #745a82;font-weight: 700;font-family: "Raleway-Bold", "Raleway" } 
		.s3 { fill: #745a82 } 
	</style>
	<text id="Logo" style="transform: matrix(1,0,0,1,303.497,131.443)" >
		<tspan x="-85.1" y="0" class="t0">Y</tspan><tspan  y="0" class="t0">o</tspan><tspan  y="0" class="t0">g</tspan><tspan  y="0" class="t0">a</tspan><tspan  y="0" class="t1">.</tspan><tspan  y="0" class="t2">O</tspan><tspan  y="0" class="t2">M</tspan><tspan  y="0" class="t2">
</tspan>
	</text>
	<path id="Vector Smart Object" fill-rule="evenodd" class="s3" d="m190.6 100.5c0.4 0.7 0.4 1.6 0.1 2.4-12.4 31-36.5 38.1-56.1 38.1-9.9-0.1-19.7-1.7-29.1-4.8-9.4 3.1-19.2 4.7-29.1 4.8-19.6 0-43.7-7.1-56.1-38.1-0.3-0.8-0.3-1.7 0.1-2.4 0.4-0.7 1.1-1.3 1.9-1.5 8.7-1.7 17.6-2.5 26.6-2.3-5.2-13-6.2-28.6-3.1-46.6q0-0.1 0-0.2c0.4-1.6 1.9-2.5 3.5-2.1 10.4 2.9 20.2 7.5 29.2 13.6 4.1-13.2 12.6-26.4 25.2-39.3 1-1 2.6-1.1 3.8-0.2 12.2 10 21.6 23.2 27.1 38.1 8.4-5.4 17.5-9.5 27.1-12.2q0.1 0 0.2 0c1.6-0.3 3.1 0.7 3.3 2.3 3.1 18 2.1 33.6-3.1 46.6 9-0.2 17.9 0.6 26.6 2.3 0.8 0.2 1.5 0.8 1.9 1.5zm-30.5-46.3c-9 3-17.6 7.2-25.5 12.6-14 9.9-22.8 22.2-26.2 36.7 1.1 5.1 1.6 10.4 1.5 15.6 4-5.3 9-9.8 14.7-13.1q0.6-0.6 1.4-0.7c9.2-4.9 19.4-7.7 29.8-8.3 5.3-11.7 6.8-26 4.3-42.8zm-76.7 10.8c9.8 7.4 17.5 17.4 22.1 28.9 5-12.3 13.4-22.9 24.2-30.5-5.4-17.8-18.8-31-23.8-35.4-11.5 12.2-19.1 24.6-22.5 37zm-32.5-10.8c-2.5 16.8-1 31.1 4.3 42.8 16.1 1.3 34.4 6.6 45.9 22.1-0.1-5.3 0.4-10.5 1.5-15.7-3.6-14.2-12.2-26.7-24.2-35.1-8.4-6.1-17.7-10.9-27.5-14.1zm21.6 81.1c9.9 0.4 19.8-0.9 29.2-3.9-15.3-34.9-61.8-29.7-74.8-27.5 9 19.7 24.2 30.2 45.6 31.4zm66 0c21.3-1.2 36.6-11.7 45.6-31.4-13-2.2-59.5-7.4-74.8 27.5 9.4 3 19.3 4.3 29.2 3.9zm-35.8-93.3h5.6v5.7h-5.6zm0 11.4h5.6v5.7h-5.6zm0 11.4h5.6v5.7h-5.6zm-42.7 0c0.1 6.4 1.9 12.7 5.2 18.3l-4.8 3.2c-3.9-6.5-6-14-6.1-21.5zm90.6 21.5l-4.8-3.2c3.3-5.6 5.1-11.9 5.3-18.3h5.6c-0.1 7.5-2.2 15-6.1 21.5z"/>
</svg>